<svg xmlns="http://www.w3.org/2000/svg" width="24" height="24" viewBox="0 0 24 24"><path d="M10.918,13.933h.706v3.8h-.706v-.419a1.585,1.585,0,0,1-.4.353c-.381.218-.9.213-.9-.557V13.933h.7v2.909c0,.153.037.256.188.256s.329-.176.415-.284V13.933Zm.642-4.181c.2,0,.311-.16.311-.377V7.521c0-.223-.1-.38-.324-.38-.208,0-.309.161-.309.38V9.375a.334.334,0,0,0,.322.377ZM9.619,12.583H7.18v.747H8v4.4h.8v-4.4h.821Zm4.721,2.253v2.105c0,.47-.176.834-.645.834a.806.806,0,0,1-.671-.34v.292h-.712V12.582h.712v1.656a.847.847,0,0,1,.628-.354c.517,0,.688.437.688.952Zm-.727.043a.475.475,0,0,0-.075-.292.291.291,0,0,0-.367-.062l-.146.116v2.365l.167.134a.3.3,0,0,0,.361-.039.445.445,0,0,0,.061-.262v-1.96ZM24,12A12,12,0,1,1,12,0,12,12,0,0,1,24,12ZM13.254,9.749c0,.394.12.712.519.712a1.17,1.17,0,0,0,.855-.5v.44h.741V6.417h-.741V9.442c-.09.113-.291.3-.436.3s-.2-.108-.2-.269V6.417h-.741V9.749ZM10.475,7.455V9.409a.957.957,0,0,0,1.085,1.068,1.015,1.015,0,0,0,1.065-1.068V7.455A1.041,1.041,0,0,0,11.56,6.384a1.02,1.02,0,0,0-1.085,1.071ZM7.714,5l.993,3.211V10.4h.835V8.211L10.513,5H9.665L9.13,7.16,8.555,5H7.714ZM17.833,15.208c-.013-2.605-.2-3.6-1.848-3.714-1.518-.1-6.455-.1-7.971,0-1.642.112-1.835,1.1-1.848,3.714.013,2.606.2,3.6,1.848,3.715,1.516.1,6.453.1,7.971,0,1.643-.113,1.835-1.1,1.848-3.715Zm-.885-.255v.966H15.6v.716c0,.285.024.531.308.531s.315-.2.315-.531v-.264h.727v.285c0,.731-.313,1.174-1.057,1.174-.676,0-1.019-.491-1.019-1.174v-1.7a1.043,1.043,0,0,1,1.071-1.116c.678,0,1.005.431,1.005,1.117Zm-.726-.007c0-.256-.054-.445-.309-.445s-.314.184-.314.445v.385h.623Z" opacity="0.35"/></svg>