<svg xmlns="http://www.w3.org/2000/svg" width="33.941" height="26.278" viewBox="0 0 33.941 26.278">
  <path id="Path_1" data-name="Path 1" d="M27.886,6.442a1.044,1.044,0,1,1,2.088,0v13.4a1.044,1.044,0,1,1-2.088,0V6.442ZM0,8.79a1.044,1.044,0,0,1,2.088,0v8.7a1.044,1.044,0,0,1-2.088,0V8.79ZM3.983,6.442a1.044,1.044,0,0,1,2.088,0v13.4a1.044,1.044,0,1,1-2.088,0V6.442Zm4-2.6a1.028,1.028,0,1,1,2.055,0v18.6a1.028,1.028,0,1,1-2.055,0V3.84Zm3.967-2.8a1.044,1.044,0,1,1,2.088,0v24.19a1.044,1.044,0,1,1-2.088,0V1.044ZM23.9,8.79a1.044,1.044,0,0,1,2.088,0v8.7a1.044,1.044,0,1,1-2.088,0V8.79ZM19.919,6.442a1.044,1.044,0,0,1,2.088,0v13.4a1.044,1.044,0,0,1-2.088,0V6.442Zm-3.97-2.6a1.028,1.028,0,1,1,2.055,0v18.6a1.028,1.028,0,1,1-2.055,0V3.84Zm15.936,0a1.028,1.028,0,1,1,2.055,0v18.6a1.028,1.028,0,1,1-2.055,0V3.84Z" fill="#fff"/>
</svg>
