<svg id="battery-charging" xmlns="http://www.w3.org/2000/svg" width="32.603" height="58.967" viewBox="0 0 32.603 58.967">
  <path id="Path_4" data-name="Path 4" d="M12.942,0h6.718a2.814,2.814,0,0,1,2.807,2.807V5.274H30.6a2.009,2.009,0,0,1,2,2V56.966a2.009,2.009,0,0,1-2,2H2a2.009,2.009,0,0,1-2-2V7.275a2.009,2.009,0,0,1,2-2h8.134V2.807A2.814,2.814,0,0,1,12.942,0ZM5.49,10.869H27.118V52.777H5.49V10.869Zm7.6,11.762,6.229.077-2.9,9.4h6.728L12.069,45.809l2.812-9.449H9.463l3.623-13.729ZM2.649,7.98H29.954V55.666H2.649V7.98Z" fill-rule="evenodd"/>
</svg>
