<svg xmlns="http://www.w3.org/2000/svg" width="17.932" height="32.398" viewBox="0 0 17.932 32.398">
  <path id="Path_3" data-name="Path 3" d="M0,28.9V8.775C-.009,6.679-.012,6.384,1.673,4.4A12.562,12.562,0,0,1,3,3.049,11.529,11.529,0,0,1,4.441,1.973,11.378,11.378,0,0,1,10.558.006a6.916,6.916,0,0,1,5.028,2.265,7.073,7.073,0,0,1,.786.989,8.041,8.041,0,0,1,.635,1.152,13.624,13.624,0,0,1,.886,6.349,30.736,30.736,0,0,1-1.727,8.144A25.841,25.841,0,0,1,11.9,26.1a24.089,24.089,0,0,1-6.083,5.452,4.179,4.179,0,0,1-3.578.68C1.217,31.838.46,30.82.023,29.045A.581.581,0,0,1,0,28.9Zm3.277-8.975c0,.058-.011.116-.016.174l-.008.005a3.751,3.751,0,0,0-.693.649,4.242,4.242,0,0,0-.812,1.666,4.487,4.487,0,0,0-.074,1.877c.161.87.614,1.192,1.334,1.02a3.647,3.647,0,0,0,1.548-1.1c.517-.541,1.147-1.134,1.806-1.756,2.159-2.038,4.646-4.385,5.17-6.649.535-2.312-.823-4.4-6.167-5.724A5.112,5.112,0,0,1,5.752,8.57,4.834,4.834,0,0,1,9.106,5.482a4,4,0,0,1,2.086.1,4.346,4.346,0,0,1,1.856,1.2c1.2,1.295,1.875,3.467,1.339,6.449A9.616,9.616,0,0,1,13.153,16.5a17.972,17.972,0,0,1-2.223,2.882c-.374.409-.751.8-1.131,1.184l-.488.5-.14.142c-.962.991-2.993,3.08-2.953,4.311a.607.607,0,0,0,1.213-.037c-.024-.717,1.761-2.555,2.61-3.428l.14-.142c.163-.171.324-.332.482-.493.4-.409.8-.817,1.165-1.215A19.052,19.052,0,0,0,14.2,17.12a10.771,10.771,0,0,0,1.382-3.673c.612-3.406-.208-5.94-1.645-7.491A5.563,5.563,0,0,0,11.563,4.43,5.239,5.239,0,0,0,8.85,4.3,6.035,6.035,0,0,0,4.631,8.111a6.061,6.061,0,0,0-.461,2.971,6.976,6.976,0,0,0,1.089,3.011.6.6,0,0,0,1.026-.641,6.033,6.033,0,0,1-.854-2.1c4.179,1.1,5.294,2.592,4.925,4.184-.443,1.906-2.782,4.116-4.817,6.035-.67.633-1.308,1.234-1.848,1.8a4.077,4.077,0,0,1-.815.709v0a3.268,3.268,0,0,1,.061-1.368,3.185,3.185,0,0,1,.377-.912A3.214,3.214,0,0,0,4.7,20.687a.605.605,0,0,0,.221-.411A2.389,2.389,0,0,0,5,18.678c-.867-3.122-3.752-1.324-1.714,1.244Zm-.548,4.213a.509.509,0,0,0,.1-.04c-.061.024-.174.055-.1.04ZM1.22,9.363V28.829c.332,1.3.825,2.022,1.45,2.262A3.107,3.107,0,0,0,5.2,30.5a22.952,22.952,0,0,0,5.756-5.178,24.65,24.65,0,0,0,4.068-6.834,29.409,29.409,0,0,0,1.656-7.8A12.5,12.5,0,0,0,15.9,4.907a6.966,6.966,0,0,0-.54-.981,6.294,6.294,0,0,0-.651-.823,5.759,5.759,0,0,0-4.174-1.888A10.161,10.161,0,0,0,5.087,3,10.391,10.391,0,0,0,3.8,3.961,11.4,11.4,0,0,0,2.6,5.179C1.2,6.827,1.2,7.067,1.214,8.77c0,.361.005.424.005.593Z" transform="translate(-0.002 -0.005)" fill="#fff"/>
</svg>
