<svg xmlns="http://www.w3.org/2000/svg" width="43.636" height="40" viewBox="0 0 43.636 40"><path d="M10.909,41V21C3.571,21,0,25.936,0,31,0,36.1,3.627,41,10.909,41ZM43.636,31c0-5.064-3.571-10-10.909-10V41C40.009,41,43.636,36.1,43.636,31ZM21.818,6.415A13.872,13.872,0,0,0,7.74,17.678a15.91,15.91,0,0,0-3.929,1.3C4.955,8.978,11.664,1,21.818,1S38.709,8.98,39.847,18.993A15.862,15.862,0,0,0,35.9,17.682,13.873,13.873,0,0,0,21.818,6.415ZM19.725,36.8l1.429-8.705,1.46,6.265a.67.67,0,0,0,1.278.1l1.322-3.378,1.233,2.876a.671.671,0,0,0,1.158.131l1.124-1.527h2.18v-1.34H28.38a.672.672,0,0,0-.542.275l-.622.853-1.416-3.3a.672.672,0,0,0-1.242.02l-1.12,2.865-1.727-7.651a.671.671,0,0,0-1.316.04L18.962,33.16,17.5,27.718a.671.671,0,0,0-1.289-.042l-1.087,3.542H12.727v1.34h2.922a.642.642,0,0,0,.573-.427l.542-1.833,1.647,6.558A.672.672,0,0,0,19.725,36.8Z" transform="translate(0 -1)"/></svg>